<svg xmlns="http://www.w3.org/2000/svg" viewBox="0 0 500 500"><g id="freepik--background-complete--inject-54"><path d="M239.78,188h-53.7s12-17.38,21.46-17.38,12.24,11.59,12.24,11.59,6.68-5.41,12.86-4.44S239.78,188,239.78,188Z" style="fill:#ebebeb"></path><path d="M460.8,168.36H407.09s12-17.39,21.46-17.39,12.25,11.59,12.25,11.59,6.67-5.41,12.85-4.44S460.8,168.36,460.8,168.36Z" style="fill:#ebebeb;opacity:0.5"></path><path d="M143.81,168H39.2s14.33-32,29.65-34S91.5,157.8,91.5,157.8s9.89-9.1,17.66-9.1,13.77,12,13.77,12S138.47,152.47,143.81,168Z" style="fill:#ebebeb"></path><path d="M436.79,231.28H332.19s14.32-32,29.65-34,22.65,23.77,22.65,23.77,9.88-9.11,17.66-9.11,13.77,12,13.77,12S431.46,215.74,436.79,231.28Z" style="fill:#ebebeb"></path><path d="M184.71,219.72H114.05s12.14-23.17,25.31-23.51,20.09,17.53,20.09,17.53S179.93,197.31,184.71,219.72Z" style="fill:#ebebeb;opacity:0.5"></path></g><g id="freepik--Shadow--inject-54"><ellipse cx="250" cy="407.14" rx="194.86" ry="24.76" style="fill:#ebebeb"></ellipse></g><g id="freepik--Sun--inject-54"><circle cx="350.06" cy="127.49" r="31" transform="translate(33.43 323.8) rotate(-51.81)" style="fill:#FFC100;opacity:0.5"></circle><circle cx="350.06" cy="127.49" r="22.33" transform="matrix(0.84, -0.54, 0.54, 0.84, -13.61, 208.36)" style="fill:#FFC100"></circle></g><g id="freepik--Birds--inject-54"><path d="M350.89,173.28a22.17,22.17,0,0,0-2.56-1.1,10.83,10.83,0,0,0-2.79-.64,2.33,2.33,0,0,0-.87.1,1.25,1.25,0,0,0-.27.12l-.17.12c-.11.08-.2.17-.3.25a14,14,0,0,0-1,1c-.63.7-1.19,1.44-1.75,2.19l.69-.24a20.9,20.9,0,0,0-2.85-.6,10.22,10.22,0,0,0-1.48-.1,5.54,5.54,0,0,0-.8.05,2.38,2.38,0,0,0-.42.11,2.76,2.76,0,0,0-.43.2,5,5,0,0,0-1.12,1.08,12.17,12.17,0,0,0-.84,1.19,18.07,18.07,0,0,0-1.33,2.54c.61-.73,1.2-1.47,1.83-2.16.31-.35.63-.69,1-1a4.54,4.54,0,0,1,1-.78,2.55,2.55,0,0,1,1.12-.11,10.58,10.58,0,0,1,1.33.18c.89.16,1.81.38,2.68.62l.44.12.26-.36c.51-.74,1.06-1.46,1.62-2.16a12,12,0,0,1,.86-1l.22-.21.1-.08a.07.07,0,0,1,0,0,1.39,1.39,0,0,1,.49-.1,13.54,13.54,0,0,1,2.63.26C349.07,172.92,350,173.11,350.89,173.28Z" style="fill:#263238"></path><path d="M340.82,200.47a30.32,30.32,0,0,0-3.44-2.36,16.18,16.18,0,0,0-3.91-1.76,3.73,3.73,0,0,0-1.3-.11,1.94,1.94,0,0,0-.43.11l-.29.13c-.19.09-.34.18-.51.27a21.59,21.59,0,0,0-1.79,1.22c-1.13.85-2.17,1.77-3.21,2.72l1.09-.16a32.2,32.2,0,0,0-4-1.71,18,18,0,0,0-2.16-.59,8.44,8.44,0,0,0-1.18-.15,4.94,4.94,0,0,0-.65,0,5.78,5.78,0,0,0-.69.17,7.35,7.35,0,0,0-2,1.26,20.66,20.66,0,0,0-1.59,1.5,27.79,27.79,0,0,0-2.69,3.35c1.11-.9,2.2-1.81,3.32-2.64.56-.42,1.12-.84,1.7-1.19a6.75,6.75,0,0,1,1.7-.85,3.93,3.93,0,0,1,1.67.16,15.8,15.8,0,0,1,1.9.65c1.27.5,2.55,1.09,3.77,1.7l.61.31.48-.46c1-.93,2-1.84,3-2.7a18.63,18.63,0,0,1,1.55-1.21c.13-.08.27-.17.39-.23l.17-.1a.15.15,0,0,1,.07,0,2.06,2.06,0,0,1,.75,0,20.61,20.61,0,0,1,3.79,1.14C338.26,199.42,339.53,200,340.82,200.47Z" style="fill:#263238"></path><path d="M145.72,118.15a21.14,21.14,0,0,0-2.34-1.5,11,11,0,0,0-2.65-1.09,2.23,2.23,0,0,0-.87,0,.8.8,0,0,0-.28.08l-.19.09c-.13.06-.23.13-.34.19-.42.27-.8.56-1.17.85-.73.59-1.41,1.23-2.08,1.88l.72-.12a20.29,20.29,0,0,0-2.71-1.06,11.36,11.36,0,0,0-1.45-.35,5,5,0,0,0-.79-.07,3.49,3.49,0,0,0-.44,0,2.54,2.54,0,0,0-.45.13,5.42,5.42,0,0,0-1.29.88,12.48,12.48,0,0,0-1,1,19.1,19.1,0,0,0-1.73,2.29c.73-.62,1.43-1.25,2.16-1.83a11.86,11.86,0,0,1,1.11-.83,4.29,4.29,0,0,1,1.12-.61,2.62,2.62,0,0,1,1.12.07,13.4,13.4,0,0,1,1.28.4c.85.31,1.72.67,2.55,1l.41.19.31-.31c.62-.65,1.29-1.27,2-1.87a12.84,12.84,0,0,1,1-.84c.09,0,.17-.12.25-.16l.12-.07s0,0,0,0a1.32,1.32,0,0,1,.5,0,13.57,13.57,0,0,1,2.56.69C144,117.51,144.85,117.84,145.72,118.15Z" style="fill:#263238"></path><path d="M168.52,114.46a29,29,0,0,0-2.58-3.27,16,16,0,0,0-3.21-2.84,3.56,3.56,0,0,0-1.21-.5,1.57,1.57,0,0,0-.44,0l-.32,0a5.22,5.22,0,0,0-.57.11,20.85,20.85,0,0,0-2.07.62c-1.33.48-2.59,1.05-3.87,1.65l1.09.17A33,33,0,0,0,152,107.6a17.94,17.94,0,0,0-1.89-1.21,9.78,9.78,0,0,0-1.08-.49,4.94,4.94,0,0,0-.64-.17,4.06,4.06,0,0,0-.7,0,7.29,7.29,0,0,0-2.25.61,19.84,19.84,0,0,0-2,1,27.84,27.84,0,0,0-3.57,2.4c1.33-.53,2.64-1.08,4-1.54a18.89,18.89,0,0,1,2-.63,6.58,6.58,0,0,1,1.87-.31,3.88,3.88,0,0,1,1.55.65,16,16,0,0,1,1.62,1.19c1.06.85,2.11,1.8,3.09,2.74l.5.47.59-.3c1.2-.6,2.45-1.16,3.68-1.68a18,18,0,0,1,1.84-.69,3.89,3.89,0,0,1,.43-.11l.2,0s0,0,.07,0a2,2,0,0,1,.72.22,20.6,20.6,0,0,1,3.28,2.22C166.39,112.7,167.44,113.59,168.52,114.46Z" style="fill:#263238"></path><path d="M373.36,193.8a31.35,31.35,0,0,0-2.59-3.28,16.07,16.07,0,0,0-3.21-2.84,3.77,3.77,0,0,0-1.21-.49,2,2,0,0,0-.44,0l-.32,0-.57.11c-.72.17-1.4.4-2.07.63-1.33.48-2.59,1.05-3.87,1.64l1.09.18a33.08,33.08,0,0,0-3.32-2.83,17.88,17.88,0,0,0-1.89-1.2,8.22,8.22,0,0,0-1.08-.49,3.86,3.86,0,0,0-.63-.17,5.63,5.63,0,0,0-.71,0,7.58,7.58,0,0,0-2.25.62c-.68.29-1.33.62-2,1a27.05,27.05,0,0,0-3.56,2.4c1.33-.52,2.63-1.07,4-1.53.66-.24,1.32-.47,2-.64a7.44,7.44,0,0,1,1.88-.31,3.8,3.8,0,0,1,1.54.66,14.93,14.93,0,0,1,1.62,1.19c1.07.85,2.11,1.79,3.09,2.73l.5.48.59-.3c1.2-.6,2.45-1.16,3.68-1.68a19,19,0,0,1,1.84-.69l.44-.12.19,0s0,0,.08,0a2,2,0,0,1,.71.22,19.34,19.34,0,0,1,3.28,2.22C371.23,192,372.28,192.92,373.36,193.8Z" style="fill:#263238"></path></g><g id="freepik--Water--inject-54"><path d="M462.21,262.79H108.72c-26.68,0-.19,4.38,21.91,4.85s89,2.81,88.72,5.86S184,280.07,184,284.64s102.29,8.18,106.83,10.82-11,3.47-4.19,6.24c5.11,2.07,77.39,4.08,107.53,7,10,1-6.12,5.8,10,9.81,7.22,1.8,58.07,3.28,58.07,3.28Z" style="fill:#ebebeb"></path><path d="M462.21,262.79H150.54c-23.53,0-.17,4.38,19.31,4.85s78.43,2.81,78.23,5.86-31.17,6.57-31.17,11.14,90.19,8.18,94.2,10.82-9.71,3.47-3.7,6.24c4.5,2.07,68.24,4.08,94.81,7,8.85,1-5.4,5.8,8.79,9.81,6.37,1.8,51.2,3.28,51.2,3.28Z" style="fill:#dbdbdb"></path><path d="M158.13,263.89l1.68.21,1.68.11c1.12.09,2.24.15,3.37.21l6.73.32,13.48.61,27,1.3c9,.53,18,1,26.94,1.74,2.24.19,4.49.4,6.73.65,1.12.12,2.25.3,3.36.5a23.5,23.5,0,0,1,3.28.92,5.82,5.82,0,0,1,1.55.83,1.49,1.49,0,0,1,.55.78,1.12,1.12,0,0,1-.23.95,4.43,4.43,0,0,1-1.39,1.07c-.5.27-1,.5-1.54.72a52.42,52.42,0,0,1-6.47,2,59.69,59.69,0,0,0,6.36-2.21,7.38,7.38,0,0,0,2.73-1.77.77.77,0,0,0-.28-1.17,5.75,5.75,0,0,0-1.45-.71,23,23,0,0,0-3.22-.83c-1.11-.17-2.2-.32-3.32-.42-2.23-.21-4.47-.37-6.72-.51-9-.58-17.95-1.06-26.93-1.51L185,266.12l-13.46-.89-6.73-.55c-1.12-.09-2.24-.19-3.36-.32l-1.68-.18Z" style="fill:#fff"></path><path d="M256.42,283.22a62,62,0,0,0,6.65.73c2.23.16,4.46.27,6.69.37q6.69.29,13.39.44l26.78.61c8.93.17,17.86.39,26.8.71,4.46.17,8.93.35,13.39.7,1.12.1,2.24.19,3.36.35a10.75,10.75,0,0,1,3.41.88,1.12,1.12,0,0,1,.49.47.77.77,0,0,1,.07.54,1.08,1.08,0,0,1-.21.39,2.58,2.58,0,0,1-.87.56,12.39,12.39,0,0,1-1.64.58c-1.09.32-2.19.58-3.28.83l-6.53,1.48a38.37,38.37,0,0,0-6.3,1.93,5.72,5.72,0,0,0-1.3.8c-.36.31-.4.64-.25.77a3.9,3.9,0,0,0,1.31.6,15.87,15.87,0,0,0,1.58.4c2.15.45,4.37.73,6.58,1,8.86,1,17.78,1.4,26.69,2s17.84,1,26.75,1.59c4.46.33,8.92.66,13.35,1.3a17,17,0,0,1,3.29.74A4.42,4.42,0,0,1,419,306.3a3.93,3.93,0,0,1-.57,3.25,10.39,10.39,0,0,1-2.2,2.52,10.45,10.45,0,0,0,2.13-2.56,3.84,3.84,0,0,0,.49-3.15,4.27,4.27,0,0,0-2.29-2.21,17.58,17.58,0,0,0-3.24-.67c-4.42-.56-8.89-.8-13.34-1.08-8.91-.52-17.84-.89-26.76-1.32s-17.84-.92-26.75-1.83c-2.23-.25-4.45-.52-6.67-1-.56-.12-1.11-.25-1.67-.42a4.42,4.42,0,0,1-1.69-.83,1.25,1.25,0,0,1-.33-1.22,1.88,1.88,0,0,1,.6-.92,6,6,0,0,1,1.54-1,38.43,38.43,0,0,1,6.47-2c2.18-.53,4.37-1,6.54-1.49,1.08-.25,2.17-.5,3.22-.81a11.3,11.3,0,0,0,1.52-.52,2.17,2.17,0,0,0,.54-.32s0,0,0,0a.24.24,0,0,0,0,.15s0,0-.12-.09a6,6,0,0,0-1.45-.48c-.53-.1-1.05-.22-1.6-.28-1.09-.15-2.2-.26-3.3-.35-4.44-.37-8.9-.56-13.36-.75-8.92-.35-17.85-.57-26.77-.86s-17.86-.53-26.79-.88c-4.46-.19-8.92-.4-13.38-.68-2.23-.14-4.46-.29-6.68-.49A61.66,61.66,0,0,1,256.42,283.22Z" style="fill:#fff"></path><path d="M320.73,279.71c8.94,0,17.88.23,26.82.62,4.47.18,8.93.47,13.39.8s8.93.74,13.37,1.46c1.11.19,2.22.41,3.33.7a11.89,11.89,0,0,1,1.65.56,4,4,0,0,1,.83.46,2.5,2.5,0,0,1,.67.79,1.77,1.77,0,0,1-.19,2.07,4.88,4.88,0,0,1-1.44,1.16A20.61,20.61,0,0,1,376,289.7l-3.18,1.08c-.52.18-1,.36-1.53.58a5,5,0,0,0-.66.35.66.66,0,0,0-.17.16s0-.14,0-.1a3.08,3.08,0,0,0,1.28.48c.53.11,1.08.21,1.62.28,1.1.16,2.21.28,3.31.39,4.44.4,8.91.61,13.37.81s8.93.35,13.4.5c-8.94.08-17.88,0-26.83-.57-1.12-.08-2.24-.17-3.36-.31-.56-.08-1.12-.15-1.68-.27-.29-.06-.57-.13-.86-.22a2.09,2.09,0,0,1-.92-.54.82.82,0,0,1-.18-.41.75.75,0,0,1,.1-.46,1.47,1.47,0,0,1,.41-.44,5,5,0,0,1,.81-.44c.53-.24,1.07-.44,1.6-.63l3.16-1.09a19.21,19.21,0,0,0,3-1.32,4.06,4.06,0,0,0,1.16-.93.85.85,0,0,0,.1-1,1.84,1.84,0,0,0-.41-.49,3.82,3.82,0,0,0-.64-.34,11.76,11.76,0,0,0-1.52-.5c-1.06-.27-2.15-.48-3.24-.66-8.79-1.39-17.74-1.88-26.64-2.47q-6.69-.42-13.39-.73Z" style="fill:#fff"></path></g><g id="freepik--Floor--inject-54"><polygon points="37.79 262.84 90.84 262.6 143.9 262.51 250 262.34 356.1 262.51 409.15 262.6 462.21 262.84 409.15 263.09 356.1 263.17 250 263.34 143.9 263.17 90.84 263.08 37.79 262.84" style="fill:#263238"></polygon><path d="M168.7,262.72s5.19-8.39,5.41-14.3c.24-6.42-3.69-13.3-3.69-13.3l.3-.24s5.55,7.07,5,14.5a30.54,30.54,0,0,1-4.7,13.34Z" style="fill:#263238"></path><path d="M170.48,234.88s3.29-3,4.83-2.86,4.63,3.57,4.63,3.69-2.66-1.85-2.66-1.85l1.56,2-2.24-2.07.72,1.73L176,233.62l.36,1.83-1.22-1.76.61,1.35-1-1.09.36,1-.84-.87.67,1.25-1.13-1.15.46,1-.68-.7c-.09-.09.2.67.2.67l-.94-1,.22.87-.48-.51.09.51-.48-.51.11.46-.73-.48.09.24Z" style="fill:#263238"></path><path d="M170.5,234.86s5.29.56,6.56,1.52,3.12,4.22,3.12,4.22l-2.66-2.72,1.32,2.72-1.9-2.9.38,2.4-1.39-2.71.53,2.37-1-2.71.33,2.59-1.21-2.83.33,2-1-2.28.38,2L172.86,236l.53,2.25-1-2.42.13,1.18-.78-1.44.28,1-.89-1.26.12.78Z" style="fill:#263238"></path><path d="M170.52,234.88s.29-3.64,1.25-4.48a16.79,16.79,0,0,1,4.1-1.8l-1.87.91,1.87-.17-2.54.53,2,.12-2.2.26,2.08.55-2.3-.16,1.22.43-1.54.14,1.78.24-2.09.29h1.47l-2,.53a8.4,8.4,0,0,1,1.42,0,9.89,9.89,0,0,1-1.59.48l.87.12-1,.17.74.28-1,0,.75.19-.82.21.34.15-.63.3Z" style="fill:#263238"></path><path d="M170.57,234.84s-1.67,2.77-1.28,4.69a23,23,0,0,0,2.54,5.35l-1.08-2.19,1.51,1.4-1.69-2.19,1.69,1-1.51-1.54,1.37.5-1.25-1.17,1.39.53-1.39-1.08,1.25.31-1.63-1.06,1.53.48-1.17-.72,1.1.17-1.38-.81,1.14,0-1.39-.88,1.29.33-1.27-.74,1.06.07s-.87-.65-.91-.65l.81.15-.73-.8.4-.07Z" style="fill:#263238"></path><path d="M170.52,234.88s-1.56-3.58-3.06-4.35a10.93,10.93,0,0,0-4.19-.7l1.9.41-1.74.15,2.83.27-2.71.24,3.34.37-3,.22,2.51.43-1.33.34,2-.08-1.64.34,2.14.24-1.51.36h2.6l-1.51.43,1.6,0-1,.26s1.41.3,1.52.3l-.83.07,1.55.32-.53,0Z" style="fill:#263238"></path><path d="M170.5,234.84s.06-4.44-.6-5.58a4,4,0,0,0-2.11-1.55l1.14.89-1.14-.15,1.19.72-1.28-.1,1.53.67L168,229.6l1.15.53-.76,0,1.07.62-.91-.2,1,.72-.94-.26,1.15.8-.85-.27,1.11.78-.82-.24.83.55-.49-.1.65.54-.56-.25.66.67-.4-.14Z" style="fill:#263238"></path><path d="M170.57,235s-5-1.57-7.28-.8S160,237.6,160,237.6l1.6-1.64-.52,1.77,1.44-2.13-.4,2,1-2-.33,2.06,1.1-2.17-.24,2.25,1.09-2.38-.29,1.72,1.09-2-.59,2.33,1.24-2.33s-.36,2.12-.35,2,.9-1.92.9-1.92l-.16,1.33.69-1.25-.13,1,.8-1.14-.27,1.08.8-1.08-.13.65s.77-.68.85-.7S170.57,235,170.57,235Z" style="fill:#263238"></path><path d="M170.57,234.88s-2.89.75-3.79,2-.08,6-.08,6v-2.75l.61,1.31-.5-2,1,1.41-.89-2.24,1,1.64-.77-2.22,1,1.6-.61-2.14.82,1.66-.31-2,.6,1.23-.28-1.58.52.93-.16-1.36.31.75.15-1,0,.53.32-1v.54l.37-.71Z" style="fill:#263238"></path><path d="M168.19,262.72h5.86s-.38-2.08,2.3-3.07a3.6,3.6,0,0,0-2.75,1.76s1.31-3.52,4.16-4.16a7.28,7.28,0,0,0-4.94,3.87s-.58-3.08,3.64-4.78c0,0-3.81.29-5.26,5,0,0,.77-4.13-2.4-5.85a6,6,0,0,1,1.7,4.41,4.36,4.36,0,0,0-4.55-2.88s3.59,1.15,3.87,3.58a4.53,4.53,0,0,0-3.29-2s1.82.86,2.11,1.73c0,0-1.15-1.06-2.14-.51C166.5,259.88,168.61,260.16,168.19,262.72Z" style="fill:#263238"></path><path d="M87.9,262.72s3.75-6.06,3.91-10.33c.17-4.64-2.67-9.61-2.67-9.61l.22-.17s4,5.1,3.63,10.47a22.07,22.07,0,0,1-3.4,9.64Z" style="fill:#263238"></path><path d="M89.18,242.61s2.39-2.14,3.5-2.07S96,243.12,96,243.2s-1.92-1.33-1.92-1.33l1.13,1.46-1.62-1.49.52,1.24-.93-1.38.26,1.31-.89-1.26.45,1-.71-.79.26.7L92,242l.48.9-.81-.83.33.73-.49-.51c-.07-.07.14.49.14.49l-.68-.69.16.62-.35-.36.07.36-.34-.36.07.32-.52-.34.06.17Z" style="fill:#263238"></path><path d="M89.21,242.59s3.81.41,4.73,1.1a14,14,0,0,1,2.26,3.05l-1.93-2,1,2-1.37-2.1.27,1.74-1-2,.38,1.71-.73-1.95.24,1.87L92.14,244l.24,1.48-.74-1.65.27,1.45-1-1.9.38,1.63-.74-1.75.1.85-.56-1,.2.69-.65-.91.09.56Z" style="fill:#263238"></path><path d="M89.22,242.61s.21-2.64.9-3.24a12.08,12.08,0,0,1,3-1.31l-1.35.66,1.35-.12-1.83.38,1.47.09-1.59.19,1.5.4L91,239.54l.88.31-1.11.1,1.29.18-1.51.21h1.06l-1.48.38a5.89,5.89,0,0,1,1,0,7.08,7.08,0,0,1-1.15.34l.63.09-.71.12.53.21-.69,0,.54.14-.59.15.24.11-.45.21Z" style="fill:#263238"></path><path d="M89.25,242.57s-1.2,2-.92,3.39a16.51,16.51,0,0,0,1.83,3.87l-.78-1.58,1.1,1-1.23-1.58,1.23.71-1.1-1.11,1,.36-.9-.85,1,.39-1-.78.9.22-1.18-.76,1.11.34-.85-.51.8.12-1-.59.83,0-1-.64.94.24-.92-.53.76.05s-.62-.47-.66-.47l.59.1-.53-.57.29-.05Z" style="fill:#263238"></path><path d="M89.22,242.61S88.09,240,87,239.46a8,8,0,0,0-3-.51l1.37.31-1.26.1,2,.2-2,.17,2.42.26-2.16.17,1.81.31-1,.24,1.44-.06-1.19.25,1.54.17-1.08.27h1.87l-1.09.31,1.16,0-.72.19s1,.22,1.1.22l-.6,0,1.12.24-.38,0Z" style="fill:#263238"></path><path d="M89.2,242.57s0-3.2-.43-4a2.84,2.84,0,0,0-1.52-1.12l.82.63-.82-.1.85.52-.92-.07,1.11.48-.91-.1.84.38-.56,0,.78.46-.66-.15.74.52-.68-.19.83.58-.61-.2.79.57-.59-.18.6.4-.35-.07.47.39-.4-.18.47.48-.29-.1Z" style="fill:#263238"></path><path d="M89.25,242.67s-3.63-1.14-5.25-.59a4.74,4.74,0,0,0-2.41,2.49l1.16-1.19-.37,1.28,1-1.53-.29,1.43.69-1.44-.24,1.49.8-1.58-.18,1.63.79-1.72-.21,1.25.79-1.43-.43,1.68.9-1.68-.25,1.47c0-.07.64-1.39.64-1.39l-.11,1,.5-.9-.1.69.58-.83-.2.78.58-.78-.09.47a5.84,5.84,0,0,1,.62-.5C88.27,242.71,89.25,242.67,89.25,242.67Z" style="fill:#263238"></path><path d="M89.25,242.61s-2.09.54-2.73,1.45-.06,4.36-.06,4.36v-2l.44.95-.36-1.46.72,1-.65-1.62.76,1.19-.55-1.61.7,1.16-.44-1.55.59,1.2-.22-1.47.43.89-.2-1.14.37.67-.11-1,.22.54.11-.7,0,.38.24-.76v.39l.26-.51Z" style="fill:#263238"></path><path d="M87.54,262.72h4.22s-.27-1.5,1.67-2.22a2.63,2.63,0,0,0-2,1.28s1-2.55,3-3a5.26,5.26,0,0,0-3.57,2.8s-.42-2.23,2.63-3.46a4.69,4.69,0,0,0-3.8,3.64s.55-3-1.74-4.23a4.29,4.29,0,0,1,1.23,3.19,3.14,3.14,0,0,0-3.28-2.08s2.59.83,2.79,2.59a3.27,3.27,0,0,0-2.38-1.43s1.32.62,1.53,1.25c0,0-.83-.77-1.55-.37A1.58,1.58,0,0,1,87.54,262.72Z" style="fill:#263238"></path><path d="M112.78,262.79h4S110,257,108.91,251.35s.86-8.15.86-8.15l-.41-.25a13,13,0,0,0-1.15,8.52C109.24,256.2,112.78,262.79,112.78,262.79Z" style="fill:#263238"></path><path d="M109.37,243.39s-3.62,1.35-4.77,2.42-1.43,5.4-1.43,5.4l.77-3-.33,2.58.94-3.32-.09,3.27.63-4.12.06,3.35.41-3.54.3,2.7.14-2.87.27,2.2.33-2.66-.08,2.39.74-2.75-.14,1.73.81-1.89-.28,1.42.6-1.78-.14,1Z" style="fill:#263238"></path><path d="M109.37,243.39s2.12,1.24,2.42,3a19.92,19.92,0,0,1-.44,5.27l0-2.8-.7,1.87L111,248l-.69,2,.29-2.68-.64,1.41.44-2.27-.69,1.07.49-1.87-.71,1.1.41-2-.55.94.28-1.51-.44.6.3-1Z" style="fill:#263238"></path><path d="M109.21,243.72a8.09,8.09,0,0,0-3.7-3.37,7,7,0,0,0-4.75.38l2.66-.16-1.78.68,2.58-.24-2,1,2.75-.69s-1.73,1.7-1.65,1.59,2.11-1.4,2.11-1.4l-1.18,1.84,1.84-1.5L105,243.72l1.7-1.37-1.38,1.59,2-1L106.27,244l1.51-.63-.66.63,1.29-.63Z" style="fill:#263238"></path><path d="M109.37,243.39s.22-4.22-.74-6.2-4.22-3-4.22-3L106.6,236l-2.19-.85,2.49,1.34s-2-.35-2.11-.38l2.42.93-2.47-.05,2.52.54-2.27.09,2.38.54-2.38.09,2.94.6-2.45-.19,2.45.74-2.07-.08,2.33.79-1.92-.16,2,.63-1.23-.08,1.51.63-1.13,0,1.27.36-.79.14,1,.41h-1.13l1.13.57Z" style="fill:#263238"></path><path d="M109.37,243.72a7.54,7.54,0,0,1,3.87-.93c1.73.25,4,2.14,4,2.14l-1.42-.72.68,1.18-1.18-1.32.39,1.74-.77-1.65-.06,1.48L114,244v1.54l-.66-1.54.05,1.79-.85-1.79-.11,1.26-.41-1.48-.2,1-.37-.94-.31.83-.21-1.05-.2.83-.38-.74Z" style="fill:#263238"></path><path d="M109.4,243.25s-.27-3.84.55-5.48,3.48-3.4,3.48-3.4l-1.57,1.75,1.74-.46-2.12,1.09h2l-2.22.47a9.68,9.68,0,0,0,1.51.6c.16,0-1.78-.24-1.78-.24l1.38,1-1.69-.44,1.51.81-1.59-.24,1.22.56-1.44-.06s1,.48,1,.48l-1.26-.06,1.1.68-1.13-.07,1,.47-1,0,.67.25-.81.19.79.08-.81.21.72.15-.75.11.53.18-.7.12.42.25-.54.18.29.12Z" style="fill:#263238"></path><path d="M109.37,243.72s1.57-3.52,3.32-4.59,5.68-.68,5.68-.68l-3.19.55,2.37.93-3-.39,2,1-2.73-.65,1.85,1.11-2.7-.81,2.14,1.34-2.63-1,1.69,1.55-2.06-1.24,1.58,1.48-1.88-1.15,1,1.44-1.42-1,.87,1.22-1.2-.87.71,1-1-.59.64.89-1.07-.61.7.75s-.93-.44-1-.44.42.44.42.44l-.64-.14Z" style="fill:#263238"></path><path d="M110.36,262.79s.25-1.57-1.94-3.25a4,4,0,0,1,2.16,2,3.67,3.67,0,0,0-2.71-3.25,3.85,3.85,0,0,1,3.33,2.63,5.46,5.46,0,0,0-2.45-4.17,6.42,6.42,0,0,1,3.3,4,6.69,6.69,0,0,1,4.21-2.64s-2.55,1-2.58,3c0,0,1.86-2.49,4.17-2.29,0,0-2.64.7-2.64,2.57a3,3,0,0,1,2.8-1.5s-2.9,1.15-1.66,2.9Z" style="fill:#263238"></path><path d="M190.21,262.79h3.4s-5.78-4.91-6.7-9.75.74-6.95.74-6.95l-.35-.21a11,11,0,0,0-1,7.26C187.19,257.18,190.21,262.79,190.21,262.79Z" style="fill:#263238"></path><path d="M187.31,246.26a17.86,17.86,0,0,0-4.07,2.05c-1,.92-1.21,4.61-1.21,4.61l.65-2.57-.28,2.2.8-2.83-.07,2.78.53-3.51.05,2.85.35-3,.26,2.3.12-2.44.23,1.87.28-2.27-.07,2,.63-2.33-.12,1.47.69-1.61-.24,1.21.51-1.52-.11.84Z" style="fill:#263238"></path><path d="M187.31,246.26a4.57,4.57,0,0,1,2.06,2.52,16.73,16.73,0,0,1-.38,4.49l0-2.38-.6,1.59.34-2.32-.58,1.71.24-2.28-.54,1.2.37-1.94-.59.91.43-1.59-.61.94.35-1.68-.47.79.23-1.29-.37.52.26-.82Z" style="fill:#263238"></path><path d="M187.17,246.53a6.93,6.93,0,0,0-3.16-2.87,6,6,0,0,0-4,.33l2.27-.14-1.52.58,2.2-.21-1.69.89,2.34-.58s-1.47,1.45-1.4,1.35,1.8-1.19,1.8-1.19l-1,1.57,1.57-1.28-1,1.55,1.45-1.16-1.17,1.35,1.73-.84-.91.91,1.28-.53-.56.53,1.1-.53Z" style="fill:#263238"></path><path d="M187.31,246.26s.19-3.6-.63-5.29-3.6-2.52-3.6-2.52l1.87,1.47-1.87-.72,2.12,1.14s-1.72-.3-1.79-.33l2.05.8-2.1-.05,2.15.47-1.94.07,2,.47-2,.07,2.51.51-2.09-.16,2.09.63-1.76-.07,2,.68-1.64-.14,1.73.53-1.05-.07,1.28.54-1,.05,1.08.3-.67.12.86.35h-1l1,.49Z" style="fill:#263238"></path><path d="M187.31,246.54a6.42,6.42,0,0,1,3.3-.8,8.82,8.82,0,0,1,3.36,1.83l-1.21-.61.58,1-1-1.12.33,1.47-.66-1.4,0,1.26-.67-1.38v1.31l-.57-1.31.05,1.52-.72-1.52-.1,1.08-.35-1.26-.17.89-.32-.8-.26.7-.18-.89-.17.71-.32-.64Z" style="fill:#263238"></path><path d="M187.33,246.14s-.23-3.27.47-4.68a10.51,10.51,0,0,1,3-2.9l-1.34,1.5,1.48-.4-1.81.94h1.69l-1.89.4a9.13,9.13,0,0,0,1.29.51c.14,0-1.52-.21-1.52-.21l1.18.84-1.44-.37,1.29.69-1.36-.21,1,.48-1.23,0s.86.41.89.41L188,243l.93.58-1-.05.84.39-.85,0,.57.21-.69.16.67.07-.69.18.62.13-.64.09.45.15-.59.11.35.21-.46.15.25.11Z" style="fill:#263238"></path><path d="M187.31,246.54s1.34-3,2.83-3.92S195,242,195,242l-2.72.48,2,.78-2.54-.33,1.73.83-2.32-.57,1.57,1-2.3-.68,1.82,1.14L190,243.8l1.44,1.31-1.76-1.05,1.35,1.26-1.6-1,.89,1.23-1.22-.88.75,1-1-.74.61.89-.87-.51.54.77-.91-.52.6.64s-.79-.38-.84-.38.35.38.35.38l-.54-.12Z" style="fill:#263238"></path><path d="M188.15,262.79s.21-1.34-1.65-2.77a3.45,3.45,0,0,1,1.84,1.7A3.13,3.13,0,0,0,186,259a3.28,3.28,0,0,1,2.84,2.24,4.68,4.68,0,0,0-2.09-3.56,5.49,5.49,0,0,1,2.81,3.43,5.75,5.75,0,0,1,3.59-2.25s-2.17.87-2.2,2.55c0,0,1.59-2.13,3.55-2,0,0-2.24.6-2.24,2.19a2.55,2.55,0,0,1,2.38-1.28s-2.47,1-1.42,2.48Z" style="fill:#263238"></path><path d="M53.32,262.79H57s-6.24-5.3-7.23-10.53.8-7.5.8-7.5l-.38-.22a11.88,11.88,0,0,0-1.06,7.83C50.07,256.73,53.32,262.79,53.32,262.79Z" style="fill:#263238"></path><path d="M50.19,244.94a19.53,19.53,0,0,0-4.39,2.22c-1.06,1-1.31,5-1.31,5l.7-2.77-.3,2.37.86-3-.08,3,.58-3.79,0,3.08.38-3.25L47,250.2l.13-2.64.25,2,.3-2.44-.07,2.19.68-2.52-.13,1.59.74-1.74L48.6,248l.56-1.64-.13.91Z" style="fill:#263238"></path><path d="M50.19,244.94s2,1.14,2.22,2.73a18.15,18.15,0,0,1-.4,4.84l0-2.57-.64,1.71.37-2.49L51.07,251l.27-2.46-.59,1.3.4-2.1-.63,1L51,247l-.65,1,.38-1.82-.51.86.25-1.39-.4.56.28-.89Z" style="fill:#263238"></path><path d="M50,245.24a7.42,7.42,0,0,0-3.41-3.1,6.51,6.51,0,0,0-4.37.35l2.45-.15-1.64.63,2.38-.23-1.82,1,2.52-.63s-1.59,1.57-1.51,1.47,1.94-1.29,1.94-1.29l-1.08,1.69,1.69-1.38-1,1.68L47.72,244l-1.26,1.46,1.86-.9-1,1,1.39-.58-.61.58,1.19-.58Z" style="fill:#263238"></path><path d="M50.19,244.94s.2-3.89-.68-5.71-3.89-2.72-3.89-2.72l2,1.59-2-.78,2.3,1.23L46,238.2l2.22.86L45.93,239l2.32.5-2.1.08,2.2.5-2.2.08,2.71.55-2.25-.17,2.25.68-1.9-.08,2.15.73-1.77-.15,1.87.58-1.14-.07,1.39.58-1,.05,1.17.33-.73.12.93.38h-1l1,.53Z" style="fill:#263238"></path><path d="M50.19,245.24a7,7,0,0,1,3.56-.86,9.65,9.65,0,0,1,3.64,2l-1.32-.65.63,1.08-1.08-1.21.35,1.59-.7-1.51L55.21,247l-.73-1.49v1.41l-.6-1.41,0,1.64-.79-1.64-.1,1.16-.37-1.36-.19,1-.34-.86-.28.76-.2-1-.18.76-.35-.69Z" style="fill:#263238"></path><path d="M50.21,244.81s-.25-3.53.51-5.05a11.42,11.42,0,0,1,3.21-3.13l-1.45,1.62,1.6-.43-1.95,1H54l-2,.43a8.56,8.56,0,0,0,1.39.55c.15,0-1.64-.22-1.64-.22l1.27.91-1.55-.41,1.39.75-1.47-.23,1.13.52-1.33,0s.92.44,1,.44l-1.16-.06,1,.63-1-.07.91.43-.92,0,.62.22-.75.18.72.08-.74.19.67.14-.7.1.5.16-.65.11.38.23-.49.17.26.11Z" style="fill:#263238"></path><path d="M50.19,245.24S51.64,242,53.25,241s5.22-.62,5.22-.62l-2.93.51,2.17.85L55,241.39l1.87.89-2.51-.6,1.7,1L53.55,242l2,1.23-2.43-.91,1.56,1.42-1.9-1.13,1.46,1.36-1.73-1.06,1,1.32-1.31-.94.8,1.12-1.1-.8.65,1-.94-.55.59.82-1-.56.65.69s-.85-.4-.91-.4.38.4.38.4l-.59-.13Z" style="fill:#263238"></path><path d="M51.1,262.79s.22-1.44-1.78-3a3.74,3.74,0,0,1,2,1.83,3.39,3.39,0,0,0-2.5-3,3.55,3.55,0,0,1,3.06,2.42,5,5,0,0,0-2.25-3.84,5.89,5.89,0,0,1,3,3.7,6.17,6.17,0,0,1,3.87-2.42s-2.34.93-2.37,2.75c0,0,1.72-2.3,3.84-2.12,0,0-2.42.65-2.42,2.37a2.73,2.73,0,0,1,2.57-1.38s-2.67,1.06-1.53,2.67Z" style="fill:#263238"></path><path d="M37.79,262.81s16-2.29,23.73-2.74,39,1.42,40,1.6,30.86-.78,38.26-1.08,129.09,2.25,129.09,2.25Z" style="fill:#263238"></path></g><g id="freepik--Character--inject-54"><path d="M337.86,396.69s51.06-.84,51.09-.82c8.42.46,27.88.57,30.69-.05,3.6-.79,15.93-43.4,16.45-46.37s-4.36-6.29-8.11-4.71l-24.07,9.11-58.84-5.68Z" style="fill:#d3766a"></path><path d="M158.78,325.34c.34,1.17,3.8,19.4,3.8,19.4,11.09-.48,90.31-4.75,95.65-5.06,17.06-1,122.89,13.1,122.89,13.1l-8.47,43.34c-56.7,4.63-104.36-1.86-111-1.71-21.95.49-78.35,8.75-124.46.54-41.6-7.4-35.3-50.78-35.3-50.78S158.74,325.33,158.78,325.34Z" style="fill:#d3766a"></path><path d="M350.69,356s40.85,7.69,40.88,7.66c.93-.05,14.82-4.19,17.27-3.79,2.83.45,53,28.14,54,31s-4.64,7.42-12.33,7.68c-4.66.16-49.58-1.29-49.58-1.29l-48.3-.34Z" style="fill:#d3766a"></path><path d="M143.39,352.72s95.1,40,111.73,42.68c10,1.59,72.66,2.61,130,1.82L390,363.41c-53.92-21.05-116-18.89-120-19.89-3.05-.75-32.18-26.18-68.39-28.27-23.05-1.33-42.49,7.69-42.49,7.69C150.42,334.17,143.39,352.72,143.39,352.72Z" style="fill:#d3766a"></path><path d="M143.39,352.72l27,10.89c9,3.63,18,7.32,27,10.88s18,7.21,27.09,10.7c2.26.89,4.53,1.74,6.81,2.59s4.54,1.71,6.83,2.5,4.56,1.66,6.88,2.39c1.15.36,2.29.79,3.47,1.1l3.51,1-3.55-.81c-1.19-.26-2.34-.66-3.51-1-2.34-.65-4.65-1.41-7-2.17s-4.6-1.57-6.89-2.38-4.58-1.62-6.86-2.46c-9.12-3.34-18.15-6.92-27.19-10.49s-18-7.32-26.94-11.1S152.25,356.7,143.39,352.72Z" style="fill:#263238"></path><path d="M263.93,339.65l6.09,3.8h0c13.67,0,27.34.82,41,2.07a347.49,347.49,0,0,1,40.58,6.07q10,2.19,19.9,5.09c3.28.95,6.54,2,9.79,3.09s6.46,2.32,9.66,3.38a2.42,2.42,0,0,0,1.11.16,10.87,10.87,0,0,0,1.22-.23c.82-.19,1.64-.42,2.46-.65l4.93-1.4c1.65-.44,3.32-.87,5-1.17a14,14,0,0,1,2.6-.25,7.38,7.38,0,0,1,2.55.65,102.19,102.19,0,0,1,9.17,4.63c3,1.65,5.95,3.36,8.89,5.1q-4.47-2.5-9-4.9a99.68,99.68,0,0,0-9.23-4.39,7.14,7.14,0,0,0-2.4-.58,14.17,14.17,0,0,0-2.49.28c-1.66.31-3.3.76-4.94,1.22l-4.91,1.47c-.83.24-1.65.48-2.49.69-.42.1-.85.19-1.3.26a3.28,3.28,0,0,1-1.4-.17c-3.29-1.06-6.48-2.22-9.72-3.29s-6.5-2.1-9.78-3q-9.82-2.85-19.84-5a360.91,360.91,0,0,0-40.46-6.2q-10.19-1.08-20.42-1.75c-6.81-.43-13.63-.84-20.47-1h0Z" style="fill:#263238"></path><path d="M159.09,322.94l-1.53-.48-55.78,18s-4.07,11,.07,20.18c0,0,29.65-4.5,47.87-5.24A138.63,138.63,0,0,1,159.09,322.94Z" style="fill:#FFC100"></path><path d="M135.84,305.82,127,306a27,27,0,0,1-2.83-16.18c.15-1.28-2.86,6-1.65,16.3-9.3.23-22,.54-33,.7-.22-4.31-.62-8.31-.62-8.31a47.38,47.38,0,0,1-1.79,8.36l-4.41.06c.32-6.71-.84-18.39-.84-18.39A58.7,58.7,0,0,1,76.42,307c-7,0-11.64-.07-11.34-.4,10.61-12.19,2.82-19.2,5.83-29.93,3.61-12.85,14.69-14.9,14.35-24.56C85,244.28,84,230,93.94,227a19.12,19.12,0,0,1,20.74-4c15.68,6,9.5,30.22,10.57,35.14,1.53,7,4.88,9.52,7.39,17.54s-1.13,13.52-1.55,19S137.6,305.8,135.84,305.82Z" style="fill:#263238"></path><path d="M64.76,304.88A27.42,27.42,0,0,0,68.17,298c.8-2.4.44-4.85,0-7.38a75.63,75.63,0,0,1-1.3-7.76,20.41,20.41,0,0,1,.77-8.08,17.91,17.91,0,0,1,4.22-7,47.28,47.28,0,0,1,6-5.13,29.26,29.26,0,0,0,5.58-5.17,14.15,14.15,0,0,0,2.8-7,13.22,13.22,0,0,1-2,7.57,26.89,26.89,0,0,1-5.38,5.82,59.54,59.54,0,0,0-5.6,5.21,17,17,0,0,0-3.66,6.32,20.13,20.13,0,0,0-.73,7.32c.15,2.51.62,5,1,7.64a26.45,26.45,0,0,1,.25,4,11.47,11.47,0,0,1-.88,4A22.21,22.21,0,0,1,64.76,304.88Z" style="fill:#263238"></path><path d="M123.55,232a39.57,39.57,0,0,1,2.14,9.37c.4,3.19.65,6.38.86,9.57l.35,4.75a24,24,0,0,0,.72,4.55,25.5,25.5,0,0,0,4.29,8.11,37.19,37.19,0,0,1,2.57,4.19,22.44,22.44,0,0,1,1.75,4.69,34.19,34.19,0,0,1,.69,4.9,20.64,20.64,0,0,1-.27,5c-.28,1.64-.74,3.18-1.13,4.7a25.11,25.11,0,0,0-.72,4.61,9.75,9.75,0,0,0,3.86,8.1,9.94,9.94,0,0,1-4.86-8.1,24.23,24.23,0,0,1,.41-4.89c.27-1.6.67-3.13.85-4.66a25.43,25.43,0,0,0-.74-9.14,22.72,22.72,0,0,0-1.65-4.24,34.49,34.49,0,0,0-2.48-3.94c-.89-1.32-1.82-2.66-2.62-4.13a20.25,20.25,0,0,1-1.86-4.66,26.21,26.21,0,0,1-.63-4.92c-.09-1.61-.12-3.21-.15-4.81-.07-3.19-.1-6.37-.25-9.55A46.41,46.41,0,0,0,123.55,232Z" style="fill:#263238"></path><path d="M123.86,280.45c25.19.34,66-14.34,64.76-25.44-1.21-10.76-10.34-25.4-29.27-38-2.34-1.55-18.61,23.69-15.61,26.23,2.7,2.27,7.67,5.56,9.68,7.18.44.36-21.44,11.5-30.84,17.32C106.67,277.63,117.11,280.37,123.86,280.45Z" style="fill:#d3766a"></path><path d="M145.7,244.45a10.86,10.86,0,0,1,1.85,1.38c.67.55,1.34,1.08,2,1.61,1.46,1.13,3,2.21,4.46,3.27s2.83,2,4.28,2.93,1,.65,2.47,1.7a.13.13,0,0,1-.14.21,33.25,33.25,0,0,1-5.54-3.35,30,30,0,0,0,2.89,3.09s0,0,0,0a17.56,17.56,0,0,1-4.26-4c-1.19-.88-3.2-2.38-4.33-3.33-.66-.55-1.31-1.1-1.95-1.66a9.45,9.45,0,0,1-1.81-1.82C145.58,244.48,145.65,244.43,145.7,244.45Z" style="fill:#263238"></path><path d="M136.11,279.65a86,86,0,0,1-12.25.81c-5.59-.07-13.71-2-7.29-8.22Z" style="fill:#263238"></path><path d="M157.56,322.46s-6.29,17.46-15.39,20.62c-14.18,4.91-40.39-2.62-40.39-2.62s-11-29.53-7.54-48.52c5.45-29.88,20.29-22.77,26.23-19.09,7,4.36,23.36,18.78,25.31,22.28a16.7,16.7,0,0,1,.62,15.3Z" style="fill:#d3766a"></path><path d="M139.66,328.93a2.41,2.41,0,0,0-.5,1.06,3.76,3.76,0,0,0-.12,1.15,5.41,5.41,0,0,0,.58,2.21c.18.33.44.55.7.5s.41-.33.41-.71a3,3,0,0,0-.27-1.11,2.32,2.32,0,0,0-.68-1,2.73,2.73,0,0,1,1.32,2.05,1.33,1.33,0,0,1-.08.7.84.84,0,0,1-.61.49.93.93,0,0,1-.76-.18,1.72,1.72,0,0,1-.45-.53,4.85,4.85,0,0,1-.58-2.46A2.93,2.93,0,0,1,139.66,328.93Z" style="fill:#263238"></path><path d="M146.43,310.39l0,0c-10,10.36-29,9.57-50.83,7.65-.28-1.43-.55-2.88-.79-4.35,2.07,0,7.45-.1,7.72-.16s5.78-13.36,13.13-15.37c10.73-2.92,18.63,8.55,18.63,8.55s-.16-12.73,3.65-15.29a4.63,4.63,0,0,1,4.16-.59c2.54.78,4.9,3.42,6.24,6.49A12.51,12.51,0,0,1,146.43,310.39Z" style="fill:#FFC100"></path><path d="M104.63,274c.34,1.24,6.68,9.14,12.41,8.63,1.87-.17,1.4-10.4,1.4-10.4l.13-.76,1.92-10.68-12.76-7.44-1.84-1s-.34,3-.71,6.64l-.06.52c0,.21-.05.41-.07.6-.06.55-.12,1.11-.17,1.67s-.08.85-.11,1.29-.06.89-.1,1.34A70.32,70.32,0,0,0,104.63,274Z" style="fill:#d3766a"></path><path d="M104.88,261.82a19.15,19.15,0,0,0,13.69,9.67l1.92-10.68-12.76-7.44-1.84-1S105.25,258.14,104.88,261.82Z" style="fill:#263238"></path><path d="M128.23,237.67c8.84,16.86-.26,24.06-3.9,26C121,265.36,109.56,270.82,99,255s-5.49-25.3,1.86-29.65S119.39,220.8,128.23,237.67Z" style="fill:#d3766a"></path><path d="M123.77,236.73c-.43.13-.84.18-1.28.27a2.08,2.08,0,0,1-1.37,0,.68.68,0,0,1-.33-.76,1.68,1.68,0,0,1,1.36-1,2.47,2.47,0,0,1,1.77.18A.72.72,0,0,1,123.77,236.73Z" style="fill:#263238"></path><path d="M112.45,242.11a11.6,11.6,0,0,0,1.07-.77,2.08,2.08,0,0,0,.94-1,.67.67,0,0,0-.33-.76,1.68,1.68,0,0,0-1.68.3,2.48,2.48,0,0,0-1.06,1.42A.72.72,0,0,0,112.45,242.11Z" style="fill:#263238"></path><path d="M116.7,245.49s-.07.1,0,.15c.58,1.16,1.06,2.58.18,3.47,0,0,0,.08,0,.06C118.09,248.38,117.44,246.49,116.7,245.49Z" style="fill:#263238"></path><path d="M115.08,244.75c-2,.74-.34,4.6,1.47,3.92S116.72,244.14,115.08,244.75Z" style="fill:#263238"></path><path d="M114.41,245.28c-.25.36-.42.88-.81,1.09a1.55,1.55,0,0,1-1.44-.27s-.07,0,0,.07c.3.74.9,1.38,1.74,1.16s1-1.07.88-1.89C114.71,245.28,114.51,245.13,114.41,245.28Z" style="fill:#263238"></path><path d="M123.38,242.09c0-.05.12,0,.14.06.45,1.22,1.17,2.54,2.42,2.49,0,0,.06.06,0,.07C124.56,245.07,123.61,243.31,123.38,242.09Z" style="fill:#263238"></path><path d="M123.94,240.39c1.87-.93,3.6,2.87,1.87,3.74S122.37,241.18,123.94,240.39Z" style="fill:#263238"></path><path d="M124.84,240.28c.4.07.86.3,1.23.16s.55-.72.64-1.24c0,0,.05,0,.07,0,.36.72.46,1.59-.17,2s-1.34,0-1.84-.63C124.68,240.51,124.69,240.26,124.84,240.28Z" style="fill:#263238"></path><path d="M120.55,254.7a2,2,0,0,0,1.29.34,3.53,3.53,0,0,0,1.2-.79,0,0,0,0,1,.07,0,1.73,1.73,0,0,1-1.3,1.23,1.37,1.37,0,0,1-1.35-.72C120.41,254.73,120.5,254.67,120.55,254.7Z" style="fill:#263238"></path><path d="M123.66,248.24s1,1.67,1.38,2.51c0,.08-.15.21-.43.35h0a4.34,4.34,0,0,1-4.51.19.09.09,0,0,1,.07-.17,6.6,6.6,0,0,0,4.09-.53c0-.26-1.83-2.81-1.71-2.87a8.08,8.08,0,0,1,2.09-.4c-2-3.54-4.58-6.73-6.53-10.28a.13.13,0,0,1,.2-.15,65.61,65.61,0,0,1,7.5,10.78C126.06,248.12,124.06,248.24,123.66,248.24Z" style="fill:#263238"></path><path d="M99.37,255.31c3-.94,1.25-7.35,1.25-7.35s6-2.35,4.52-11.7a14.27,14.27,0,0,1,.18,8.13s10.06-5.29,11-15.84c0,0,0,5.18-1,7.43,0,0,3.91-3,4.63-7.41,0,0,3.86,4.34,5.83,5.17,0,0-7.74-18.19-24-9.46,0,0-10.38,4.95-10.85,14.91S99.37,255.31,99.37,255.31Z" style="fill:#263238"></path><path d="M107.77,229.66c.26,1.82-2.53,3.71-6.22,4.23s-6.89-.53-7.14-2.35,2.52-3.71,6.21-4.23S107.51,227.84,107.77,229.66Z" style="fill:#FFC100"></path><path d="M106.25,229.49c.19,1.38-1.92,2.82-4.73,3.22s-5.23-.41-5.43-1.79,1.92-2.82,4.73-3.21S106.05,228.11,106.25,229.49Z" style="fill:#263238"></path><path d="M106,228.1l-1.12-.3c.79-2.83,3.86-3.43,5.38-3.36l-.06,1.16C110.08,225.59,106.75,225.47,106,228.1Z" style="fill:#FFC100"></path><path d="M98,255c-.06-.18-1.44-4.41-1.65-5.26-.25-1,1.8-16.5,1.84-16.59l.53.21.57.11c-.15.88-1.94,15-1.81,16,.2.78,1.6,5.12,1.62,5.16Z" style="fill:#FFC100"></path><path d="M121.53,222.33c.25,1.82-2.53,3.71-6.22,4.23s-6.89-.53-7.15-2.35,2.53-3.71,6.22-4.23S121.27,220.51,121.53,222.33Z" style="fill:#FFC100"></path><path d="M120,222.27c.2,1.38-1.92,2.82-4.72,3.22s-5.24-.41-5.43-1.79,1.92-2.82,4.72-3.21S119.8,220.89,120,222.27Z" style="fill:#263238"></path><path d="M102.38,254.85s-6.13-3.88-8-1.47,4.29,9.15,7.67,9a3.23,3.23,0,0,0,3.31-3.27Z" style="fill:#d3766a"></path><path d="M96.17,255.27s0,.08,0,.08c2.4,0,4.27,1.42,5.85,3.08a1.77,1.77,0,0,0-2.64.58c0,.06,0,.12.1.08a2,2,0,0,1,2.28-.2,9.7,9.7,0,0,1,1.64,1.22c.17.14.46-.09.31-.27l0,0C102.64,257.16,99.08,254.36,96.17,255.27Z" style="fill:#263238"></path><path d="M97.71,279.78C85,309.48,76,357.76,74.1,365.28c-1.65,6.44,30.72,16.9,32.05,12.53,1.7-5.59,2.74-62.83,2.4-89.82C108.34,270.29,100.45,273.37,97.71,279.78Z" style="fill:#d3766a"></path><path d="M106.15,377.81c0,4.09-1.23,16.48-3.83,18.06s-19.77,1.24-26.66,1.24-8.25-1.92-8.13-4.29S82.1,390,82.1,390s-19.31,5.53-24.17,6.44-16,3.72-17.66-.31c-.73-1.81,2.33-3.65,2.33-3.65s-4.69,1.37-5.44-1c-.85-2.66,2.88-4.12,2.88-4.12s-2.93.59-3-1.57c-.15-4.84,18.21-7.22,18.21-7.22s-14.06,6.85-14.51,2.9c-.62-5.47,28.19-11.46,31.19-13.85a20.45,20.45,0,0,0,4.81-5.93Z" style="fill:#d3766a"></path><path d="M67.63,394a2.14,2.14,0,0,1,.65-1.84A6.31,6.31,0,0,1,70,391.09a23.07,23.07,0,0,1,4-1.28c2.72-.69,5.5-1.18,8.27-1.89a33.52,33.52,0,0,0-8.51.95,15.84,15.84,0,0,0-4.06,1.56,5.58,5.58,0,0,0-1.69,1.45A2.19,2.19,0,0,0,67.63,394Z" style="fill:#263238"></path><path d="M42.6,392.48c2-.48,3.95-1,5.9-1.61s3.9-1.16,5.84-1.75l5.82-1.82c1.94-.61,3.88-1.21,5.84-1.8a45.75,45.75,0,0,0-6,1.08c-2,.45-4,1-5.9,1.62s-3.88,1.24-5.79,2S44.46,391.62,42.6,392.48Z" style="fill:#263238"></path><path d="M61.33,380.68a38.86,38.86,0,0,0-5.57.77,54.45,54.45,0,0,0-5.45,1.4,50.68,50.68,0,0,0-5.27,2,39.38,39.38,0,0,0-5,2.58c1.78-.61,3.51-1.3,5.27-1.88s3.52-1.2,5.29-1.74,3.56-1.08,5.34-1.61S59.52,381.17,61.33,380.68Z" style="fill:#263238"></path><path d="M58.49,376.07a34.48,34.48,0,0,0-8.86,1.87,34.22,34.22,0,0,0-8.16,4c2.86-1,5.63-2.1,8.47-3S55.61,377,58.49,376.07Z" style="fill:#263238"></path><path d="M108.2,299.79c.1-3.16.35-6.31.55-9.47,0-.06.09-.06.09,0,0,2.19.06,4.38.06,6.57.08-.34.16-.68.23-1,.19-.85.37-1.7.53-2.56,0-.06.13-.05.12,0a24.85,24.85,0,0,1-.37,2.57c-.08.43-.18.85-.29,1.28-.05.21-.11.42-.16.63l-.06.21c.18.24-.83,71.6-1.75,76.09,0,.22-.34.23-.34,0C106.81,371,108.1,303,108.2,299.79Z" style="fill:#263238"></path><path d="M159.35,217s-17.8-10.92-29.48-11.87c-4.89-.39-25.48,2.49-25,7.49.48,4.53,17.88,0,17.88,0s-18,3-16.38,8.33S127,218.68,127,218.68s-18.38,3.47-15.88,8.73c1.89,4,19.47-2,19.47-2s-15.77,3.1-14,7.27c1.95,4.61,18.53.09,18.53.09,3.27,7.76,7.32,10.78,12.49,11.7C148.81,244.67,159.35,217,159.35,217Z" style="fill:#d3766a"></path><path d="M128.93,211.27c-2.12.27-4.27.53-6.36,1s-4.17,1-6.21,1.65a36.25,36.25,0,0,0-7.68,3.3c4.49-2.15,11.94-3.92,14-4.38s4.15-1,6.24-1.49C129,211.33,129,211.26,128.93,211.27Z" style="fill:#263238"></path><path d="M130.73,218.78c-2.69.47-5.38.83-8.06,1.42s-5.13,1.37-7.75,2.13c-.2.06-.1.15.1.1,2.65-.66,5.14-1.07,7.79-1.7s5.28-1.36,7.94-1.88C130.79,218.84,130.77,218.77,130.73,218.78Z" style="fill:#263238"></path><path d="M133.44,225a60.79,60.79,0,0,0-12.16,3.1c-.2.07-.06.17.15.11,4-1.11,7.17-2,12-3.07C133.53,225.08,133.52,225,133.44,225Z" style="fill:#263238"></path><path d="M114.92,222.33a9.28,9.28,0,0,0-3.5,2.84,2.09,2.09,0,0,0-.24,2,2.34,2.34,0,0,0,1.71,1.16,14.14,14.14,0,0,0,4.5,0c1.51-.19,3-.48,4.5-.8l.12.48a15.09,15.09,0,0,0-4.07,2,3.07,3.07,0,0,0-1.29,1.67,2,2,0,0,0,.79,1.83,7.84,7.84,0,0,0,4.33,1.06,34,34,0,0,0,4.62-.18,35.74,35.74,0,0,1-4.62.43,14.18,14.18,0,0,1-2.34-.17,5.16,5.16,0,0,1-2.23-.84,2.33,2.33,0,0,1-1-2.21,3.5,3.5,0,0,1,1.44-1.95,15.62,15.62,0,0,1,4.2-2.11l.13.48c-1.5.31-3,.59-4.55.77a13.41,13.41,0,0,1-4.64-.11,2.71,2.71,0,0,1-1.91-1.4,2.34,2.34,0,0,1,.33-2.3A9.41,9.41,0,0,1,114.92,222.33Z" style="fill:#263238"></path></g><g id="freepik--Sandals--inject-54"><path d="M260.45,407.19s83.39-.44,90-.56c0,0,2.27,3,.12,5.28,0,0-61.64,3.77-89.79,1.13A6.22,6.22,0,0,1,260.45,407.19Z" style="fill:#37474f"></path><path d="M293.74,409s4.56-12.88,12.31-18.91,13.19-6.05,13.19-6.05l9.16,5s-9.85,3.26-14.82,7.2-7.79,12.68-7.79,12.68Z" style="fill:#37474f"></path><path d="M309.49,408.65s2.64-7.66,7.81-11.46,13.94-6.57,13.94-6.57l6.3,4.25s-9.74,3.83-13.13,6.26-4.39,7.81-4.39,7.81Z" style="fill:#37474f"></path><path d="M440.75,413s-83.22,5.31-89.84,5.65c0,0-2.06,3.15.24,5.27,0,0,61.75-.49,89.66-5.07A6.2,6.2,0,0,0,440.75,413Z" style="fill:#37474f"></path><path d="M407.67,417.09s-5.44-12.54-13.59-18-13.58-5.13-13.58-5.13l-8.79,5.59s10.05,2.56,15.28,6.16,8.64,12.11,8.64,12.11Z" style="fill:#37474f"></path><path d="M391.93,417.78s-3.17-7.46-8.59-10.89-14.35-5.6-14.35-5.6L363,406s10,3.15,13.53,5.34,4.92,7.49,4.92,7.49Z" style="fill:#37474f"></path></g></svg>